<svg height="512pt" viewBox="0 0 512 512" width="512pt" xmlns="http://www.w3.org/2000/svg"><path d="m437.019531 74.980469c-48.347656-48.351563-112.640625-74.980469-181.019531-74.980469s-132.671875 26.628906-181.019531 74.980469c-48.351563 48.347656-74.980469 112.640625-74.980469 181.019531s26.628906 132.671875 74.980469 181.019531c48.347656 48.351563 112.640625 74.980469 181.019531 74.980469 34.191406 0 67.359375-6.660156 98.019531-19.359375 30.660157-12.699219 58.820313-31.441406 83-55.621094 48.351563-48.347656 74.980469-112.640625 74.980469-181.019531s-26.628906-132.671875-74.980469-181.019531zm-93.175781 247.652343c38.527344-33.839843 86.546875-53.246093 137.773438-55.664062-2.371094 49.492188-20.902344 98.34375-55.546876 137.890625zm137.246094-85.683593v.015625c-28.40625 1.257812-56.140625 7.160156-82.664063 17.648437-27.953125 11.050781-53.398437 26.761719-75.832031 46.765625l-45.382812-45.378906 148.859374-148.859375c32.757813 37.390625 51.109376 83.097656 55.019532 129.808594zm-226.476563 161.476562c-10.484375 26.519531-16.386719 54.261719-17.644531 82.664063-.007812 0-.011719 0-.019531 0-46.710938-3.910156-92.417969-22.261719-129.808594-55.019532l148.859375-148.859374 45.378906 45.382812c-20.003906 22.433594-35.714844 47.878906-46.765625 75.832031zm-86.460937-209.058593c-38.523438 33.832031-86.558594 53.21875-137.769532 55.65625 2.371094-49.492188 20.898438-98.335938 55.546876-137.882813zm-61.011719-103.4375c39.546875-34.65625 88.402344-53.1875 137.890625-55.558594-2.421875 51.234375-21.824219 99.257812-55.664062 137.78125zm150.246094 27.640624c10.484375-26.519531 16.386719-54.265624 17.644531-82.671874h.027344c46.699218 3.921874 92.410156 22.261718 129.800781 55.03125l-148.859375 148.855468-45.378906-45.378906c20-22.4375 35.710937-47.878906 46.765625-75.835938zm-226.476563 161.480469c0-.003906 0-.003906 0-.003906 28.402344-1.261719 56.140625-7.175781 82.660156-17.660156 27.957032-11.050781 53.398438-26.761719 75.835938-46.765625l45.378906 45.378906-148.855468 148.859375c-32.761719-37.390625-51.109376-83.101563-55.019532-129.808594zm236.058594 206.570313c2.421875-51.234375 21.824219-99.25 55.664062-137.777344l82.226563 82.226562c-39.546875 34.648438-88.394531 53.175782-137.890625 55.550782zm0 0"/></svg>